<svg width="100" height="70" viewBox="0 0 100 70" fill="none" xmlns="http://www.w3.org/2000/svg">
<path fill-rule="evenodd" clip-rule="evenodd" d="M48.7506 4.43826C49.4811 3.85391 50.519 3.85391 51.2494 4.43826L66.249 16.4379C66.2491 16.438 66.2488 16.4378 66.249 16.4379L71.2494 20.4383C72.1119 21.1283 72.2518 22.3869 71.5617 23.2494C70.8717 24.1119 69.6131 24.2518 68.7506 23.5617L67 22.1612V42C67 43.1046 66.1046 44 65 44H35C33.8954 44 33 43.1046 33 42V22.1612L31.2494 23.5617C30.3869 24.2518 29.1283 24.1119 28.4383 23.2494C27.7483 22.3869 27.8881 21.1283 28.7506 20.4383L33.7506 16.4383C33.7508 16.4381 33.7504 16.4384 33.7506 16.4383L48.7506 4.43826ZM37 18.9612L50 8.56125L63 18.9612V40H57V29C57 27.8954 56.1046 27 55 27H45C43.8954 27 43 27.8954 43 29V40H37V18.9612ZM47 40H53V31H47V40Z" fill="#FFCC03"/>
<path d="M40.7978 58.48V67H39.7178V63.124H35.0258V67H33.9458V58.48H35.0258V62.164H39.7178V58.48H40.7978ZM45.3028 67.12C44.6788 67.12 44.1268 66.972 43.6468 66.676C43.1748 66.372 42.8068 65.976 42.5428 65.488C42.2788 64.992 42.1468 64.456 42.1468 63.88C42.1468 63.296 42.2788 62.76 42.5428 62.272C42.8148 61.776 43.1868 61.38 43.6588 61.084C44.1388 60.78 44.6868 60.628 45.3028 60.628C45.9268 60.628 46.4748 60.78 46.9468 61.084C47.4268 61.38 47.7988 61.776 48.0628 62.272C48.3348 62.76 48.4708 63.296 48.4708 63.88C48.4708 64.456 48.3348 64.992 48.0628 65.488C47.7988 65.976 47.4308 66.372 46.9588 66.676C46.4868 66.972 45.9348 67.12 45.3028 67.12ZM43.2268 63.892C43.2268 64.324 43.3188 64.716 43.5028 65.068C43.6948 65.42 43.9468 65.7 44.2588 65.908C44.5708 66.108 44.9188 66.208 45.3028 66.208C45.6868 66.208 46.0348 66.104 46.3468 65.896C46.6668 65.688 46.9188 65.408 47.1028 65.056C47.2948 64.696 47.3908 64.3 47.3908 63.868C47.3908 63.436 47.2948 63.044 47.1028 62.692C46.9188 62.34 46.6668 62.06 46.3468 61.852C46.0348 61.644 45.6868 61.54 45.3028 61.54C44.9188 61.54 44.5708 61.648 44.2588 61.864C43.9468 62.072 43.6948 62.352 43.5028 62.704C43.3188 63.056 43.2268 63.452 43.2268 63.892ZM59.1944 67H58.1384V63.496C58.1384 62.84 58.0304 62.356 57.8144 62.044C57.6064 61.732 57.2944 61.576 56.8784 61.576C56.4544 61.576 56.0704 61.732 55.7264 62.044C55.3824 62.348 55.1384 62.744 54.9944 63.232V67H53.9384V63.496C53.9384 62.832 53.8344 62.348 53.6264 62.044C53.4184 61.732 53.1064 61.576 52.6904 61.576C52.2744 61.576 51.8904 61.728 51.5384 62.032C51.1944 62.328 50.9504 62.724 50.8064 63.22V67H49.7504V60.736H50.7104V62.08C50.9664 61.616 51.2984 61.26 51.7064 61.012C52.1144 60.756 52.5744 60.628 53.0864 60.628C53.6064 60.628 54.0224 60.772 54.3344 61.06C54.6464 61.34 54.8384 61.704 54.9104 62.152C55.4704 61.136 56.2664 60.628 57.2984 60.628C57.7784 60.628 58.1544 60.744 58.4264 60.976C58.7064 61.2 58.9024 61.512 59.0144 61.912C59.1344 62.304 59.1944 62.752 59.1944 63.256V67ZM63.6084 67.12C62.9844 67.12 62.4324 66.972 61.9524 66.676C61.4724 66.38 61.0964 65.984 60.8244 65.488C60.5524 64.992 60.4164 64.452 60.4164 63.868C60.4164 63.276 60.5524 62.736 60.8244 62.248C61.0964 61.76 61.4724 61.368 61.9524 61.072C62.4404 60.776 62.9964 60.628 63.6204 60.628C64.2524 60.628 64.8004 60.78 65.2644 61.084C65.7364 61.38 66.1004 61.772 66.3564 62.26C66.6204 62.74 66.7524 63.26 66.7524 63.82C66.7524 63.996 66.7444 64.132 66.7284 64.228H61.5324C61.5644 64.636 61.6764 65 61.8684 65.32C62.0684 65.632 62.3244 65.88 62.6364 66.064C62.9484 66.24 63.2844 66.328 63.6444 66.328C64.0284 66.328 64.3884 66.232 64.7244 66.04C65.0684 65.848 65.3044 65.596 65.4324 65.284L66.3444 65.536C66.1444 66 65.7964 66.38 65.3004 66.676C64.8044 66.972 64.2404 67.12 63.6084 67.12ZM61.4964 63.496H65.7684C65.7364 63.088 65.6204 62.728 65.4204 62.416C65.2204 62.104 64.9644 61.86 64.6524 61.684C64.3404 61.508 63.9964 61.42 63.6204 61.42C63.2524 61.42 62.9124 61.508 62.6004 61.684C62.2884 61.86 62.0324 62.104 61.8324 62.416C61.6404 62.728 61.5284 63.088 61.4964 63.496Z" fill="#F5EF21"/>
</svg>
